<svg xmlns="http://www.w3.org/2000/svg" viewBox="72 61 364 390" width="364" height="390">
  <g transform="translate(0,512) scale(0.025,-0.025)" fill="#F57921">
    <path d="M14355 17861 l-40 -18 -49 -54 c-48 -53 -80 -97 -181 -244 -108 -158 -654 -732 -862 -906 -29 -24 -121 -105 -205 -179 -84 -75 -173 -151 -198 -170 -25 -19 -77 -62 -116 -95 -87 -75 -178 -145 -269 -209 -38 -27 -88 -65 -110 -85 -47 -43 -473 -333 -560 -381 -33 -19 -96 -57 -140 -86 -44 -28 -136 -83 -205 -121 -69 -39 -178 -100 -243 -137 -65 -36 -120 -66 -124 -66 -3 0 -31 -15 -62 -34 -143 -87 -893 -463 -1040 -521 -64 -26 -132 -56 -151 -67 -19 -11 -129 -58 -245 -105 -115 -46 -223 -91 -240 -99 -16 -9 -61 -28 -100 -44 -38 -15 -113 -46 -165 -68 -107 -45 -154 -64 -325 -135 -187 -78 -501 -221 -595 -271 -47 -25 -104 -52 -127 -60 -48 -17 -281 -130 -333 -161 -19 -12 -93 -47 -165 -79 -71 -32 -173 -84 -226 -116 -53 -32 -131 -75 -174 -95 -151 -73 -589 -333 -735 -438 -25 -18 -110 -78 -190 -135 -152 -108 -221 -160 -358 -270 -46 -37 -108 -86 -139 -110 -30 -23 -92 -76 -136 -118 -45 -42 -106 -95 -137 -117 -30 -23 -84 -68 -120 -102 -36 -33 -120 -108 -185 -167 -173 -154 -295 -275 -425 -422 -63 -71 -138 -155 -166 -185 -77 -85 -188 -221 -255 -313 -33 -46 -92 -127 -132 -182 -40 -54 -114 -162 -165 -240 l-94 -141 -85 -175 c-81 -167 -103 -220 -177 -425 -18 -49 -38 -100 -45 -113 -7 -13 -28 -69 -46 -125 -19 -56 -54 -158 -78 -227 -61 -175 -141 -421 -166 -510 -11 -41 -30 -106 -41 -144 -11 -37 -20 -79 -20 -92 0 -14 -11 -75 -24 -137 -33 -151 -54 -330 -61 -517 -4 -85 -10 -188 -15 -227 -5 -40 -14 -151 -20 -245 -5 -95 -17 -227 -26 -293 l-17 -120 5 -110 5 -110 21 -40 c11 -22 29 -49 41 -59 l21 -19 29 1 c44 1 83 25 135 83 l47 53 63 125 c34 69 88 170 119 223 31 54 57 101 57 104 0 3 35 65 79 137 43 73 98 168 121 212 110 202 499 762 694 998 84 102 495 532 549 575 23 19 67 57 98 85 77 71 148 131 253 213 49 38 106 83 127 99 164 129 483 358 558 401 24 13 94 58 155 98 222 147 415 263 499 300 30 13 81 41 113 62 71 46 539 293 654 345 19 9 89 44 154 77 66 34 123 62 128 62 4 0 51 20 104 45 52 25 100 45 105 45 6 0 79 30 162 66 84 37 184 79 222 94 119 47 306 126 390 165 44 20 112 49 150 65 148 59 246 100 284 119 22 11 68 31 104 45 35 13 88 35 118 49 49 23 240 110 509 232 154 70 311 146 620 300 151 76 315 158 365 182 49 25 101 53 115 63 14 10 57 35 95 55 107 58 339 213 669 448 128 91 232 176 425 348 53 47 123 107 156 133 261 209 897 846 1005 1006 14 21 61 81 105 134 102 124 297 404 410 591 65 107 170 314 199 395 13 36 38 99 56 140 39 92 151 403 175 485 9 33 26 77 37 99 11 21 35 84 53 140 19 56 56 164 83 241 27 77 53 160 56 185 4 25 17 90 28 145 l21 100 -1 296 -1 296 -26 99 c-31 113 -38 129 -73 167 l-26 27 -35 0 -36 0 -40 -19z M17163 14180 c-12 -5 -51 -33 -87 -62 l-65 -53 -57 -75 c-32 -41 -78 -106 -103 -145 -24 -38 -57 -86 -71 -105 -27 -35 -155 -214 -214 -300 -17 -25 -56 -72 -86 -105 -31 -33 -67 -76 -82 -95 -14 -19 -81 -96 -149 -170 -68 -75 -146 -161 -173 -193 -149 -177 -807 -849 -902 -921 -23 -17 -87 -71 -141 -121 -55 -49 -142 -124 -193 -165 -51 -41 -102 -86 -114 -98 -12 -13 -41 -35 -66 -50 -25 -14 -103 -64 -173 -111 -125 -84 -217 -142 -327 -206 -30 -18 -100 -59 -155 -92 -246 -146 -394 -228 -460 -255 -27 -10 -70 -32 -95 -48 -102 -63 -484 -251 -670 -328 -109 -46 -333 -140 -435 -184 -38 -16 -104 -42 -145 -58 -181 -68 -301 -115 -388 -152 -51 -22 -144 -59 -205 -83 -208 -80 -425 -168 -577 -235 -47 -21 -157 -68 -245 -105 -88 -37 -216 -92 -285 -122 -69 -30 -153 -66 -188 -79 -58 -22 -214 -88 -363 -155 -36 -16 -70 -29 -75 -29 -5 0 -49 -20 -99 -44 -49 -24 -137 -66 -195 -92 -58 -26 -127 -61 -155 -77 -27 -16 -70 -37 -95 -47 -50 -20 -199 -101 -244 -133 -16 -11 -70 -41 -120 -66 l-92 -46 -209 -142 c-190 -129 -250 -171 -400 -283 -26 -19 -140 -109 -253 -200 -113 -91 -230 -184 -261 -208 -31 -24 -74 -60 -96 -81 -22 -21 -56 -48 -75 -61 -19 -13 -67 -53 -105 -90 -39 -36 -106 -93 -150 -127 l-80 -61 -225 -224 c-269 -266 -434 -444 -550 -593 -47 -60 -103 -129 -126 -154 -22 -25 -69 -86 -104 -136 -35 -49 -80 -112 -101 -140 -47 -63 -183 -291 -222 -370 -16 -33 -46 -89 -68 -125 -21 -36 -50 -96 -64 -135 -28 -76 -73 -179 -141 -322 -24 -51 -44 -95 -44 -99 0 -4 -16 -38 -35 -76 -20 -38 -47 -99 -61 -135 -13 -37 -28 -71 -33 -77 -13 -18 -181 -449 -181 -466 0 -7 -17 -69 -39 -139 -21 -69 -48 -175 -61 -236 -12 -60 -29 -135 -37 -165 -8 -30 -19 -99 -23 -152 -8 -103 -29 -229 -61 -363 -10 -45 -19 -100 -19 -123 0 -23 -9 -75 -20 -114 -11 -40 -20 -85 -20 -100 0 -14 -9 -72 -20 -128 l-20 -101 0 -115 0 -115 25 -24 24 -25 31 0 c72 0 135 46 214 158 49 70 89 136 295 491 61 105 147 221 245 332 23 25 77 88 121 139 285 332 980 1038 1215 1234 339 282 468 381 725 552 382 256 417 277 750 459 22 12 85 46 140 77 293 161 558 282 1050 478 39 16 115 47 170 70 55 23 165 66 245 96 80 29 217 83 305 119 88 37 194 80 235 96 41 16 104 43 140 59 128 58 278 120 289 120 7 0 33 11 59 24 26 13 79 35 117 49 39 14 120 47 180 73 238 101 429 180 605 250 308 123 1031 463 1175 554 33 20 105 61 160 90 55 29 126 70 158 92 32 22 106 67 165 100 59 33 130 77 157 98 28 20 80 53 117 73 36 20 113 69 170 110 57 40 180 128 274 195 94 67 177 129 185 138 7 9 45 38 84 65 371 258 995 833 1200 1104 20 28 64 82 96 120 235 280 487 703 621 1040 11 28 30 70 43 95 20 38 54 112 165 355 207 453 279 677 326 1005 l16 115 9 288 8 287 12 38 c11 36 21 172 35 463 l7 146 -22 71 -21 71 -22 16 -22 15 -31 -1 c-16 0 -40 -4 -52 -9z"/>
  </g>
</svg>
